<svg xmlns="http://www.w3.org/2000/svg" viewBox="0 0 512 512">
  <rect width="512" height="512" rx="96" fill="#0f1724"/>
  <!-- Flow dots top-left -->
  <circle cx="110" cy="110" r="28" fill="#ff4d4d"/>
  <circle cx="210" cy="140" r="28" fill="#4dff91"/>
  <circle cx="170" cy="230" r="28" fill="#4db8ff"/>
  <line x1="110" y1="110" x2="210" y2="140" stroke="#ff4d4d" stroke-width="14" stroke-linecap="round" opacity="0.7"/>
  <line x1="210" y1="140" x2="170" y2="230" stroke="#4dff91" stroke-width="14" stroke-linecap="round" opacity="0.7"/>
  <!-- Gem shape bottom-right -->
  <polygon points="360,270 430,310 430,390 360,430 290,390 290,310" fill="#a855f7" opacity="0.9"/>
  <polygon points="360,270 430,310 360,320 290,310" fill="#c084fc"/>
  <polygon points="360,320 430,310 430,390 360,430" fill="#7c3aed"/>
  <polygon points="360,320 290,310 290,390 360,430" fill="#9333ea"/>
  <!-- Cross highlights -->
  <line x1="360" y1="270" x2="360" y2="320" stroke="white" stroke-width="2" opacity="0.4"/>
  <line x1="290" y1="310" x2="430" y2="310" stroke="white" stroke-width="2" opacity="0.4"/>
</svg>
